SplineFontDB: 3.0
FontName: Lycop
FullName: Lycop
FamilyName: Lycop
Weight: Regular
Copyright: 
Version: 001.000
ItalicAngle: 0
UnderlinePosition: 0
UnderlineWidth: 2
Ascent: 18
Descent: 4
InvalidEm: 0
LayerCount: 2
Layer: 0 0 "background" 1
Layer: 1 0 "foreground" 0
XUID: [1021 423 739876703 12790073]
FSType: 8
OS2Version: 0
OS2_WeightWidthSlopeOnly: 0
OS2_UseTypoMetrics: 0
CreationTime: 1426410948
ModificationTime: 1482434812
PfmFamily: 17
TTFWeight: 500
TTFWidth: 5
LineGap: 0
VLineGap: 0
OS2TypoAscent: 0
OS2TypoAOffset: 1
OS2TypoDescent: 0
OS2TypoDOffset: 1
OS2TypoLinegap: 0
OS2WinAscent: 0
OS2WinAOffset: 1
OS2WinDescent: 0
OS2WinDOffset: 1
HheadAscent: 0
HheadAOffset: 1
HheadDescent: 0
HheadDOffset: 1
OS2Vendor: 'PfEd'
Lookup: 258 0 0 "kern" { "kern" [3,0,4] } ['kern' ('DFLT' <'dflt' > 'latn' <'dflt' > ) ]
MarkAttachClasses: 1
DEI: 91125
KernClass2: 10 6 "kern"
 21 L Lacute Lcommaaccent
 632 a b c e g h k m n o p q s t u v w x y z uni00B5 agrave aacute acircumflex atilde adieresis aring ae ccedilla egrave eacute ecircumflex edieresis ntilde ograve oacute ocircumflex otilde odieresis oslash ugrave uacute ucircumflex udieresis yacute thorn ydieresis amacron abreve aogonek cdotaccent emacron ebreve edotaccent eogonek ecaron gcircumflex gbreve gdotaccent gcommaaccent hcircumflex dotlessi kcommaaccent kgreenlandic Ldot Lslash nacute ncommaaccent ncaron eng omacron obreve oe sacute scircumflex scedilla scaron tcommaaccent tbar utilde umacron ubreve uring uogonek wcircumflex ycircumflex zacute zdotaccent zcaron uni0237
 5 longs
 26 T Tcommaaccent Tcaron Tbar
 3 F P
 1 f
 30 Y Yacute Ycircumflex Ydieresis
 15 r rcommaaccent

 13 racute rcaron
 13 J Jcircumflex
 76 a agrave aacute acircumflex atilde adieresis aring ae amacron abreve aogonek

StartChar: A
Encoding: 65 65 0
Width: 8
VWidth: 0
Flags: HW
LayerCount: 2
Fore
SplineSet
0 0 m 25
 0 12 l 18
 0 13 1 14 2 14 c 10
 6 14 l 18
 7 14 8 13 8 12 c 10
 8 0 l 25
 6 0 l 25
 6 6 l 25
 2 6 l 25
 2 0 l 25
 0 0 l 25
2 8 m 25
 6 8 l 25
 6 12 l 25
 2 12 l 25
 2 8 l 25
EndSplineSet
EndChar

StartChar: B
Encoding: 66 66 1
Width: 8
VWidth: 0
Flags: HW
LayerCount: 2
Fore
SplineSet
0 0 m 25
 0 14 l 25
 5 14 l 18
 7 14 8 13 8 11 c 10
 8 9 l 18
 8 8 7 7 6 7 c 1
 7 7 8 6 8 5 c 10
 8 3 l 18
 8 1 7 0 5 0 c 10
 0 0 l 25
2 2 m 17
 4 2 l 2
 5 2 6 2 6 3 c 2
 6 5 l 2
 6 6 5 6 4 6 c 10
 2 6 l 25
 2 2 l 17
2 8 m 25
 4 8 l 18
 5 8 6 8 6 9 c 2
 6 11 l 2
 6 12 5 12 4 12 c 2
 2 12 l 9
 2 8 l 25
EndSplineSet
EndChar

StartChar: C
Encoding: 67 67 2
Width: 8
VWidth: 0
Flags: HW
LayerCount: 2
Fore
SplineSet
0 2 m 10
 0 12 l 18
 0 13 1 14 2 14 c 2
 6 14 l 2
 7 14 8 13 8 12 c 10
 8 10 l 17
 6 10 l 1
 6 12 l 1
 2 12 l 9
 2 2 l 17
 6 2 l 1
 6 4 l 1
 8 4 l 9
 8 2 l 18
 8 1 7 0 6 0 c 2
 2 0 l 2
 1 0 0 1 0 2 c 10
EndSplineSet
EndChar

StartChar: D
Encoding: 68 68 3
Width: 8
VWidth: 0
Flags: HW
LayerCount: 2
Fore
SplineSet
0 0 m 25
 0 14 l 25
 5 14 l 18
 7 14 8 13 8 11 c 10
 8 3 l 18
 8 1 7 0 5 0 c 10
 0 0 l 25
2 2 m 17
 4 2 l 2
 5 2 6 2 6 3 c 10
 6 11 l 18
 6 12 5 12 4 12 c 2
 2 12 l 9
 2 2 l 17
EndSplineSet
EndChar

StartChar: E
Encoding: 69 69 4
Width: 8
VWidth: 0
Flags: HW
LayerCount: 2
Fore
SplineSet
0 2 m 2
 0 12 l 2
 0 13 1 14 2 14 c 10
 8 14 l 25
 8 12 l 25
 2 12 l 25
 2 8 l 25
 6 8 l 25
 6 6 l 25
 2 6 l 25
 2 2 l 25
 8 2 l 25
 8 0 l 25
 2 0 l 18
 1 0 0 1 0 2 c 2
EndSplineSet
EndChar

StartChar: F
Encoding: 70 70 5
Width: 8
VWidth: 0
Flags: HW
LayerCount: 2
Fore
SplineSet
0 0 m 17
 0 12 l 2
 0 13 1 14 2 14 c 10
 8 14 l 25
 8 12 l 25
 2 12 l 25
 2 8 l 25
 6 8 l 25
 6 6 l 25
 2 6 l 25
 2 0 l 25
 0 0 l 17
EndSplineSet
EndChar

StartChar: G
Encoding: 71 71 6
Width: 8
VWidth: 0
Flags: HW
LayerCount: 2
Fore
SplineSet
0 2 m 10
 0 12 l 18
 0 13 1 14 2 14 c 10
 6 14 l 18
 7 14 8 13 8 12 c 10
 8 10 l 25
 6 10 l 25
 6 12 l 25
 2 12 l 25
 2 2 l 25
 6 2 l 25
 6 6 l 25
 4 6 l 25
 4 8 l 25
 8 8 l 17
 8 2 l 2
 8 1 7 0 6 0 c 10
 2 0 l 18
 1 0 0 1 0 2 c 10
EndSplineSet
EndChar

StartChar: H
Encoding: 72 72 7
Width: 8
VWidth: 0
Flags: HW
LayerCount: 2
Fore
SplineSet
0 0 m 25
 0 14 l 25
 2 14 l 25
 2 8 l 25
 6 8 l 25
 6 14 l 25
 8 14 l 25
 8 0 l 25
 6 0 l 25
 6 6 l 25
 2 6 l 25
 2 0 l 25
 0 0 l 25
EndSplineSet
EndChar

StartChar: I
Encoding: 73 73 8
Width: 2
VWidth: 0
Flags: HW
LayerCount: 2
Fore
SplineSet
0 0 m 25
 0 14 l 25
 2 14 l 25
 2 0 l 25
 0 0 l 25
EndSplineSet
EndChar

StartChar: J
Encoding: 74 74 9
Width: 8
VWidth: 0
Flags: HW
LayerCount: 2
Fore
SplineSet
0 2 m 10
 0 4 l 25
 2 4 l 25
 2 2 l 25
 6 2 l 25
 6 14 l 25
 8 14 l 25
 8 2 l 18
 8 1 7 0 6 0 c 10
 2 0 l 18
 1 0 0 1 0 2 c 10
EndSplineSet
EndChar

StartChar: K
Encoding: 75 75 10
Width: 8
VWidth: 0
Flags: HW
LayerCount: 2
Fore
SplineSet
0 0 m 25
 0 14 l 25
 2 14 l 17
 2 8 l 1
 4 8 6 8 6 10 c 10
 6 14 l 25
 8 14 l 25
 8 10 l 18
 8 8 7 7 5 7 c 1
 7 7 8 6 8 4 c 10
 8 0 l 25
 6 0 l 25
 6 4 l 18
 6 6 4 6 2 6 c 1
 2 0 l 9
 0 0 l 25
EndSplineSet
EndChar

StartChar: L
Encoding: 76 76 11
Width: 6
VWidth: 0
Flags: HW
LayerCount: 2
Fore
SplineSet
0 0 m 25
 0 14 l 25
 2 14 l 25
 2 2 l 25
 6 2 l 25
 6 0 l 25
 0 0 l 25
EndSplineSet
EndChar

StartChar: M
Encoding: 77 77 12
Width: 12
VWidth: 0
Flags: HW
LayerCount: 2
Fore
SplineSet
0 0 m 25
 0 14 l 25
 10 14 l 18
 11 14 12 13 12 12 c 10
 12 0 l 25
 10 0 l 25
 10 12 l 25
 7 12 l 25
 7 0 l 25
 5 0 l 25
 5 12 l 25
 2 12 l 25
 2 0 l 25
 0 0 l 25
EndSplineSet
EndChar

StartChar: N
Encoding: 78 78 13
Width: 8
VWidth: 0
Flags: HW
LayerCount: 2
Fore
SplineSet
0 0 m 25
 0 14 l 17
 6 14 l 2
 7 14 8 13 8 12 c 10
 8 0 l 25
 6 0 l 25
 6 12 l 25
 2 12 l 25
 2 0 l 25
 0 0 l 25
EndSplineSet
EndChar

StartChar: O
Encoding: 79 79 14
Width: 8
VWidth: 0
Flags: HW
LayerCount: 2
Fore
SplineSet
0 2 m 10
 0 12 l 18
 0 13 1 14 2 14 c 10
 6 14 l 18
 7 14 8 13 8 12 c 10
 8 2 l 18
 8 1 7 0 6 0 c 10
 2 0 l 18
 1 0 0 1 0 2 c 10
2 2 m 25
 6 2 l 25
 6 12 l 25
 2 12 l 25
 2 2 l 25
EndSplineSet
EndChar

StartChar: P
Encoding: 80 80 15
Width: 8
VWidth: 0
Flags: HW
LayerCount: 2
Fore
SplineSet
0 0 m 17
 0 14 l 17
 6 14 l 2
 7 14 8 13 8 12 c 10
 8 8 l 18
 8 7 7 6 6 6 c 10
 2 6 l 25
 2 0 l 25
 0 0 l 17
2 8 m 25
 6 8 l 25
 6 12 l 25
 2 12 l 25
 2 8 l 25
EndSplineSet
EndChar

StartChar: R
Encoding: 82 82 17
Width: 8
VWidth: 0
Flags: HW
LayerCount: 2
Fore
SplineSet
0 0 m 25
 0 14 l 25
 5 14 l 18
 7 14 8 13 8 11 c 10
 8 9 l 18
 8 8 7 7 6 7 c 2
 5 7 l 2
 7 7 8 6 8 4 c 10
 8 0 l 25
 6 0 l 17
 6 4 l 2
 6 6 4 6 2 6 c 9
 2 4 2 2 2 0 c 25
 0 0 l 25
2 8 m 17
 4 8 l 18
 5 8 6 8 6 9 c 10
 6 11 l 18
 6 12 5 12 4 12 c 2
 2 12 l 9
 2 8 l 17
EndSplineSet
EndChar

StartChar: S
Encoding: 83 83 18
Width: 8
VWidth: 0
Flags: HW
LayerCount: 2
Fore
SplineSet
0 2 m 2
 0 4 l 1
 2 4 l 1
 2 2 l 1
 6 2 l 9
 6 6 l 25
 2 6 l 18
 1 6 0 7 0 8 c 10
 0 12 l 18
 0 13 1 14 2 14 c 2
 6 14 l 2
 7 14 8 13 8 12 c 10
 8 10 l 17
 6 10 l 1
 6 12 l 1
 2 12 l 9
 2 8 l 25
 6 8 l 18
 7 8 8 7 8 6 c 10
 8 2 l 18
 8 1 7 0 6 0 c 10
 2 0 l 18
 1 0 0 1 0 2 c 2
EndSplineSet
EndChar

StartChar: T
Encoding: 84 84 19
Width: 8
VWidth: 0
Flags: HW
LayerCount: 2
Fore
SplineSet
0 12 m 25
 0 14 l 25
 8 14 l 25
 8 12 l 25
 5 12 l 25
 5 0 l 25
 3 0 l 25
 3 12 l 25
 0 12 l 25
EndSplineSet
EndChar

StartChar: U
Encoding: 85 85 20
Width: 8
VWidth: 0
Flags: HW
LayerCount: 2
Fore
SplineSet
0 2 m 10
 0 14 l 25
 2 14 l 25
 2 2 l 25
 6 2 l 25
 6 14 l 25
 8 14 l 25
 8 0 l 25
 2 0 l 18
 1 0 0 1 0 2 c 10
EndSplineSet
EndChar

StartChar: V
Encoding: 86 86 21
Width: 8
VWidth: 0
Flags: HW
LayerCount: 2
Fore
SplineSet
3 0 m 9
 0 14 l 17
 2 14 l 1
 4 4 l 17
 6 14 l 1
 8 14 l 1
 5 0 l 1
 3 0 l 9
EndSplineSet
EndChar

StartChar: W
Encoding: 87 87 22
Width: 12
VWidth: 0
Flags: HW
LayerCount: 2
Fore
SplineSet
0 2 m 10
 0 14 l 17
 2 14 l 1
 2 2 l 25
 5 2 l 25
 5 14 l 17
 7 14 l 9
 7 2 l 25
 10 2 l 25
 10 14 l 17
 12 14 l 9
 12 2 l 18
 12 1 11 0 10 0 c 10
 2 0 l 18
 1 0 0 1 0 2 c 10
EndSplineSet
EndChar

StartChar: X
Encoding: 88 88 23
Width: 8
VWidth: 0
Flags: HW
LayerCount: 2
Fore
SplineSet
0 0 m 17
 0 4 l 2
 0 6 1 7 3 7 c 1
 1 7 0 8 0 10 c 2
 0 14 l 9
 2 14 l 17
 2 10 l 2
 2 8 3 8 4 8 c 0
 5 8 6 8 6 10 c 2
 6 14 l 9
 8 14 l 17
 8 10 l 2
 8 8 7 7 5 7 c 1
 7 7 8 6 8 4 c 2
 8 0 l 9
 6 0 l 17
 6 4 l 2
 6 6 5 6 4 6 c 0
 3 6 2 6 2 4 c 2
 2 0 l 9
 0 0 l 17
EndSplineSet
EndChar

StartChar: Y
Encoding: 89 89 24
Width: 8
VWidth: 0
Flags: HW
LayerCount: 2
Fore
SplineSet
0 9 m 2
 0 14 l 9
 2 14 l 17
 2 9 l 2
 2 8 3 8 4 8 c 0
 5 8 6 8 6 9 c 10
 6 14 l 25
 8 14 l 17
 8 9 l 2
 8 8 7 7 6 7 c 2
 5 7 l 9
 5 0 l 25
 3 0 l 25
 3 7 l 17
 2 7 l 2
 1 7 0 8 0 9 c 2
EndSplineSet
EndChar

StartChar: Z
Encoding: 90 90 25
Width: 8
VWidth: 0
Flags: HW
LayerCount: 2
Fore
SplineSet
0 0 m 25
 0 6 l 18
 0 7 1 8 2 8 c 2
 6 8 l 1
 6 12 l 9
 0 12 l 25
 0 14 l 25
 8 14 l 25
 8 8 l 18
 8 7 7 6 6 6 c 2
 2 6 l 1
 2 2 l 9
 8 2 l 25
 8 0 l 25
 0 0 l 25
EndSplineSet
EndChar

StartChar: a
Encoding: 97 97 26
Width: 8
VWidth: 0
Flags: HW
LayerCount: 2
Fore
SplineSet
0 2 m 10
 0 4 l 18
 0 5 1 6 2 6 c 10
 6 6 l 25
 6 8 l 25
 2 8 l 17
 2 10 l 9
 6 10 l 18
 7 10 8 9 8 8 c 10
 8 0 l 25
 2 0 l 18
 1 0 0 1 0 2 c 10
2 2 m 25
 6 2 l 25
 6 4 l 25
 2 4 l 25
 2 2 l 25
EndSplineSet
EndChar

StartChar: b
Encoding: 98 98 27
Width: 8
VWidth: 0
Flags: HW
LayerCount: 2
Fore
SplineSet
0 0 m 25
 0 14 l 25
 2 14 l 25
 2 10 l 25
 6 10 l 18
 7 10 8 9 8 8 c 10
 8 2 l 18
 8 1 7 0 6 0 c 10
 0 0 l 25
2 2 m 25
 6 2 l 25
 6 8 l 25
 2 8 l 25
 2 2 l 25
EndSplineSet
EndChar

StartChar: c
Encoding: 99 99 28
Width: 6
VWidth: 0
Flags: HW
LayerCount: 2
Fore
SplineSet
0 2 m 10
 0 8 l 18
 0 9 1 10 2 10 c 10
 6 10 l 25
 6 8 l 25
 2 8 l 25
 2 2 l 25
 6 2 l 25
 6 0 l 25
 2 0 l 18
 1 0 0 1 0 2 c 10
EndSplineSet
EndChar

StartChar: e
Encoding: 101 101 30
Width: 8
VWidth: 0
Flags: HW
LayerCount: 2
Fore
SplineSet
0 2 m 10
 0 8 l 18
 0 9 1 10 2 10 c 10
 6 10 l 18
 7 10 8 9 8 8 c 2
 8 6 l 2
 8 5 7 4 6 4 c 10
 2 4 l 25
 2 2 l 25
 6 2 l 17
 6 0 l 9
 2 0 l 18
 1 0 0 1 0 2 c 10
2 6 m 25
 6 6 l 25
 6 8 l 25
 2 8 l 25
 2 6 l 25
EndSplineSet
EndChar

StartChar: f
Encoding: 102 102 31
Width: 6
VWidth: 0
Flags: HW
LayerCount: 2
Fore
SplineSet
0 0 m 25
 0 12 l 18
 0 13 1 14 2 14 c 10
 6 14 l 25
 6 12 l 25
 2 12 l 25
 2 10 l 25
 6 10 l 25
 6 8 l 25
 2 8 l 25
 2 0 l 25
 0 0 l 25
EndSplineSet
EndChar

StartChar: g
Encoding: 103 103 32
Width: 8
VWidth: 0
Flags: HW
LayerCount: 2
Fore
SplineSet
0 2 m 10
 0 8 l 18
 0 9 1 10 2 10 c 10
 8 10 l 25
 8 -2 l 18
 8 -3 7 -4 6 -4 c 10
 2 -4 l 25
 2 -2 l 25
 6 -2 l 25
 6 0 l 25
 2 0 l 18
 1 0 0 1 0 2 c 10
2 2 m 25
 6 2 l 25
 6 8 l 25
 2 8 l 25
 2 2 l 25
EndSplineSet
EndChar

StartChar: h
Encoding: 104 104 33
Width: 8
VWidth: 0
Flags: HW
LayerCount: 2
Fore
SplineSet
0 0 m 25
 0 14 l 25
 2 14 l 25
 2 10 l 25
 6 10 l 18
 7 10 8 9 8 8 c 10
 8 0 l 25
 6 0 l 25
 6 8 l 25
 2 8 l 25
 2 0 l 25
 0 0 l 25
EndSplineSet
EndChar

StartChar: k
Encoding: 107 107 36
Width: 8
VWidth: 0
Flags: HW
LayerCount: 2
Fore
SplineSet
0 0 m 25
 0 14 l 25
 2 14 l 25
 2 6 l 17
 4 6 l 2
 5 6 6 6 6 7 c 2
 6 10 l 9
 8 10 l 17
 8 7 l 2
 8 6 7 5 6 5 c 1
 7 5 8 4 8 3 c 2
 8 0 l 9
 6 0 l 17
 6 3 l 2
 6 4 5 4 4 4 c 2
 2 4 l 9
 2 0 l 25
 0 0 l 25
EndSplineSet
EndChar

StartChar: m
Encoding: 109 109 38
Width: 12
VWidth: 0
Flags: HW
LayerCount: 2
Fore
SplineSet
0 0 m 25
 0 10 l 25
 10 10 l 18
 11 10 12 9 12 8 c 10
 12 0 l 25
 10 0 l 25
 10 8 l 25
 7 8 l 25
 7 0 l 25
 5 0 l 25
 5 8 l 25
 2 8 l 25
 2 0 l 25
 0 0 l 25
EndSplineSet
EndChar

StartChar: n
Encoding: 110 110 39
Width: 8
VWidth: 0
Flags: HW
LayerCount: 2
Fore
SplineSet
0 0 m 25
 0 10 l 25
 6 10 l 18
 7 10 8 9 8 8 c 10
 8 0 l 25
 6 0 l 25
 6 8 l 25
 2 8 l 25
 2 0 l 25
 0 0 l 25
EndSplineSet
EndChar

StartChar: o
Encoding: 111 111 40
Width: 8
VWidth: 0
Flags: HW
LayerCount: 2
Fore
SplineSet
0 2 m 10
 0 8 l 18
 0 9 1 10 2 10 c 10
 6 10 l 18
 7 10 8 9 8 8 c 10
 8 2 l 18
 8 1 7 0 6 0 c 10
 2 0 l 18
 1 0 0 1 0 2 c 10
2 2 m 25
 6 2 l 25
 6 8 l 25
 2 8 l 25
 2 2 l 25
EndSplineSet
EndChar

StartChar: r
Encoding: 114 114 43
Width: 6
VWidth: 0
Flags: HW
LayerCount: 2
Fore
SplineSet
0 0 m 25
 0 8 l 18
 0 9 1 10 2 10 c 10
 6 10 l 25
 6 8 l 25
 2 8 l 25
 2 0 l 25
 0 0 l 25
EndSplineSet
EndChar

StartChar: s
Encoding: 115 115 44
Width: 8
VWidth: 0
Flags: HW
LayerCount: 2
Fore
SplineSet
0 0 m 25
 0 2 l 25
 6 2 l 25
 6 4 l 25
 2 4 l 18
 1 4 0 5 0 6 c 10
 0 8 l 18
 0 9 1 10 2 10 c 10
 8 10 l 25
 8 8 l 25
 2 8 l 25
 2 6 l 25
 6 6 l 18
 7 6 8 5 8 4 c 10
 8 2 l 18
 8 1 7 0 6 0 c 10
 0 0 l 25
EndSplineSet
EndChar

StartChar: t
Encoding: 116 116 45
Width: 6
VWidth: 0
Flags: HW
LayerCount: 2
Fore
SplineSet
0 2 m 10
 0 14 l 25
 2 14 l 25
 2 10 l 25
 6 10 l 25
 6 8 l 25
 2 8 l 25
 2 2 l 25
 6 2 l 25
 6 0 l 25
 2 0 l 18
 1 0 0 1 0 2 c 10
EndSplineSet
EndChar

StartChar: u
Encoding: 117 117 46
Width: 8
VWidth: 0
Flags: HW
LayerCount: 2
Fore
SplineSet
0 2 m 10
 0 10 l 25
 2 10 l 25
 2 2 l 25
 6 2 l 25
 6 10 l 25
 8 10 l 25
 8 0 l 25
 2 0 l 18
 1 0 0 1 0 2 c 10
EndSplineSet
EndChar

StartChar: v
Encoding: 118 118 47
Width: 8
VWidth: 0
Flags: HW
LayerCount: 2
Fore
SplineSet
3 0 m 9
 0 10 l 17
 2 10 l 1
 4 3 l 17
 6 10 l 1
 8 10 l 1
 5 0 l 1
 3 0 l 9
EndSplineSet
EndChar

StartChar: w
Encoding: 119 119 48
Width: 12
VWidth: 0
Flags: HW
LayerCount: 2
Fore
SplineSet
0 2 m 10
 0 10 l 17
 2 10 l 1
 2 2 l 25
 5 2 l 25
 5 10 l 17
 7 10 l 9
 7 2 l 25
 10 2 l 25
 10 10 l 17
 12 10 l 9
 12 2 l 18
 12 1 11 0 10 0 c 10
 2 0 l 18
 1 0 0 1 0 2 c 10
EndSplineSet
EndChar

StartChar: x
Encoding: 120 120 49
Width: 8
VWidth: 0
Flags: HW
LayerCount: 2
Fore
SplineSet
0 0 m 25
 0 3 l 18
 0 4 1 5 2 5 c 1
 1 5 0 6 0 7 c 10
 0 10 l 25
 2 10 l 25
 2 7 l 18
 2 6 3 6 4 6 c 0
 5 6 6 6 6 7 c 10
 6 10 l 25
 8 10 l 25
 8 7 l 18
 8 6 7 5 6 5 c 1
 7 5 8 4 8 3 c 10
 8 0 l 25
 6 0 l 25
 6 3 l 18
 6 4 5 4 4 4 c 0
 3 4 2 4 2 3 c 10
 2 0 l 25
 0 0 l 25
EndSplineSet
EndChar

StartChar: y
Encoding: 121 121 50
Width: 8
VWidth: 0
Flags: HW
LayerCount: 2
Fore
SplineSet
0 2 m 10
 0 10 l 25
 2 10 l 25
 2 2 l 25
 6 2 l 25
 6 10 l 25
 8 10 l 25
 8 -2 l 18
 8 -3 7 -4 6 -4 c 10
 2 -4 l 25
 2 -2 l 25
 6 -2 l 25
 6 0 l 25
 2 0 l 18
 1 0 0 1 0 2 c 10
EndSplineSet
EndChar

StartChar: z
Encoding: 122 122 51
Width: 8
VWidth: 0
Flags: HW
LayerCount: 2
Fore
SplineSet
0 0 m 25
 0 4 l 18
 0 5 1 6 2 6 c 2
 6 6 l 1
 6 8 l 9
 0 8 l 25
 0 10 l 25
 8 10 l 25
 8 6 l 18
 8 5 7 4 6 4 c 2
 2 4 l 1
 2 2 l 9
 8 2 l 25
 8 0 l 25
 0 0 l 25
EndSplineSet
EndChar

StartChar: one
Encoding: 49 49 53
Width: 4
VWidth: 0
Flags: HW
LayerCount: 2
Fore
SplineSet
0 12 m 25
 0 14 l 25
 2 14 l 18
 3 14 4 13 4 12 c 10
 4 0 l 25
 2 0 l 25
 2 12 l 25
 0 12 l 25
EndSplineSet
EndChar

StartChar: two
Encoding: 50 50 54
Width: 8
VWidth: 0
Flags: HW
LayerCount: 2
Fore
SplineSet
0 0 m 25
 0 6 l 18
 0 7 1 8 2 8 c 2
 6 8 l 9
 6 12 l 25
 2 12 l 25
 2 10 l 25
 0 10 l 25
 0 12 l 18
 0 13 1 14 2 14 c 10
 6 14 l 18
 7 14 8 13 8 12 c 10
 8 8 l 18
 8 7 7 6 6 6 c 2
 2 6 l 1
 2 2 l 1
 8 2 l 9
 8 0 l 25
 0 0 l 25
EndSplineSet
EndChar

StartChar: three
Encoding: 51 51 55
Width: 8
VWidth: 0
Flags: HW
LayerCount: 2
Fore
SplineSet
0 2 m 10
 0 4 l 25
 2 4 l 25
 2 3 l 18
 2 2 3 2 4 2 c 0
 5 2 6 2 6 3 c 10
 6 5 l 18
 6 6 5 6 4 6 c 9
 4 8 l 17
 5 8 6 8 6 9 c 10
 6 11 l 18
 6 12 5 12 4 12 c 0
 3 12 2 12 2 11 c 10
 2 10 l 25
 0 10 l 25
 0 12 l 18
 0 13 1 14 2 14 c 10
 6 14 l 18
 7 14 8 13 8 12 c 10
 8 9 l 18
 8 8 7 7 6 7 c 1
 7 7 8 6 8 5 c 10
 8 2 l 18
 8 1 7 0 6 0 c 10
 2 0 l 18
 1 0 0 1 0 2 c 10
EndSplineSet
EndChar

StartChar: four
Encoding: 52 52 56
Width: 8
VWidth: 0
Flags: HW
LayerCount: 2
Fore
SplineSet
0 8 m 2
 0 14 l 9
 2 14 l 25
 2 8 l 25
 6 8 l 25
 6 14 l 25
 8 14 l 25
 8 0 l 25
 6 0 l 25
 6 6 l 25
 2 6 l 18
 1 6 0 7 0 8 c 2
EndSplineSet
EndChar

StartChar: five
Encoding: 53 53 57
Width: 8
VWidth: 0
Flags: HW
LayerCount: 2
Fore
SplineSet
0 2 m 10
 0 4 l 25
 2 4 l 25
 2 2 l 25
 6 2 l 25
 6 6 l 25
 0 6 l 25
 0 14 l 25
 8 14 l 25
 8 12 l 25
 2 12 l 25
 2 8 l 25
 6 8 l 18
 7 8 8 7 8 6 c 10
 8 2 l 18
 8 1 7 0 6 0 c 10
 2 0 l 18
 1 0 0 1 0 2 c 10
EndSplineSet
EndChar

StartChar: six
Encoding: 54 54 58
Width: 8
VWidth: 0
Flags: HW
LayerCount: 2
Fore
SplineSet
0 2 m 10
 0 12 l 18
 0 13 1 14 2 14 c 10
 6 14 l 18
 7 14 8 13 8 12 c 10
 8 10 l 25
 6 10 l 25
 6 12 l 25
 2 12 l 25
 2 8 l 25
 6 8 l 18
 7 8 8 7 8 6 c 10
 8 2 l 18
 8 1 7 0 6 0 c 10
 2 0 l 18
 1 0 0 1 0 2 c 10
2 2 m 25
 6 2 l 25
 6 6 l 25
 2 6 l 25
 2 2 l 25
EndSplineSet
EndChar

StartChar: seven
Encoding: 55 55 59
Width: 8
VWidth: 0
Flags: HW
LayerCount: 2
Fore
SplineSet
0 12 m 25
 0 14 l 25
 8 14 l 17
 8 8 l 2
 8 7 7 6 6 6 c 2
 4 6 l 1
 4 0 l 9
 2 0 l 17
 2 6 l 2
 2 7 3 8 4 8 c 2
 6 8 l 1
 6 12 l 9
 0 12 l 25
EndSplineSet
EndChar

StartChar: eight
Encoding: 56 56 60
Width: 8
VWidth: 0
Flags: HW
LayerCount: 2
Fore
SplineSet
0 2 m 10
 0 5 l 18
 0 6 1 7 2 7 c 1
 1 7 0 8 0 9 c 10
 0 12 l 18
 0 13 1 14 2 14 c 10
 6 14 l 18
 7 14 8 13 8 12 c 10
 8 9 l 18
 8 8 7 7 6 7 c 1
 7 7 8 6 8 5 c 10
 8 2 l 18
 8 1 7 0 6 0 c 10
 2 0 l 18
 1 0 0 1 0 2 c 10
2 3 m 18
 2 2 3 2 4 2 c 0
 5 2 6 2 6 3 c 10
 6 5 l 18
 6 6 5 6 4 6 c 0
 3 6 2 6 2 5 c 10
 2 3 l 18
2 9 m 18
 2 8 3 8 4 8 c 0
 5 8 6 8 6 9 c 10
 6 11 l 18
 6 12 5 12 4 12 c 0
 3 12 2 12 2 11 c 10
 2 9 l 18
EndSplineSet
EndChar

StartChar: exclam
Encoding: 33 33 63
Width: 2
VWidth: 0
Flags: HW
LayerCount: 2
Fore
SplineSet
0 0 m 25
 0 2 l 25
 2 2 l 25
 2 0 l 25
 0 0 l 25
0 4 m 25
 0 14 l 25
 2 14 l 25
 2 4 l 25
 0 4 l 25
EndSplineSet
EndChar

StartChar: quoteright
Encoding: 8217 8217 64
Width: 2
VWidth: 0
Flags: HW
LayerCount: 2
Fore
SplineSet
0 8 m 9
 0 14 l 25
 2 14 l 25
 2 10 l 18
 2 9 1 8 0 8 c 9
EndSplineSet
EndChar

StartChar: comma
Encoding: 44 44 71
Width: 2
VWidth: 0
Flags: HW
LayerCount: 2
Fore
SplineSet
-1 -2 m 1
 -1 -2 0 -2 0 -1 c 10
 0 2 l 9
 2 2 l 25
 2 -1 l 18
 2 -3 1 -4 -1 -4 c 1
 -1 -2 l 1
EndSplineSet
EndChar

StartChar: bar
Encoding: 124 124 75
Width: 2
VWidth: 0
Flags: HW
LayerCount: 2
Fore
SplineSet
0 -2 m 25
 0 16 l 25
 2 16 l 25
 2 -2 l 25
 0 -2 l 25
EndSplineSet
EndChar

StartChar: parenleft
Encoding: 40 40 76
Width: 4
VWidth: 0
Flags: HW
LayerCount: 2
Fore
SplineSet
0 1 m 10
 0 13 l 18
 0 15 1 16 3 16 c 10
 4 16 l 25
 4 14 l 25
 3 14 l 18
 2 14 2 13 2 12 c 2
 2 2 l 2
 2 1 2 0 3 0 c 10
 4 0 l 25
 4 -2 l 25
 3 -2 l 18
 1 -2 0 -1 0 1 c 10
EndSplineSet
EndChar

StartChar: bracketleft
Encoding: 91 91 78
Width: 4
VWidth: 0
Flags: HW
LayerCount: 2
Fore
SplineSet
0 -2 m 25
 0 16 l 25
 4 16 l 25
 4 14 l 25
 2 14 l 25
 2 0 l 25
 4 0 l 25
 4 -2 l 25
 0 -2 l 25
EndSplineSet
EndChar

StartChar: braceleft
Encoding: 123 123 80
Width: 6
VWidth: 0
Flags: HW
LayerCount: 2
Fore
SplineSet
0 7 m 1
 1 7 2 8 2 9 c 10
 2 13 l 18
 2 15 3 16 5 16 c 10
 6 16 l 25
 6 14 l 25
 5 14 l 18
 4 14 4 13 4 12 c 2
 4 9 l 2
 4 8 3 7 2 7 c 1
 3 7 4 6 4 5 c 2
 4 2 l 2
 4 1 4 0 5 0 c 10
 6 0 l 25
 6 -2 l 25
 5 -2 l 18
 3 -2 2 -1 2 1 c 10
 2 5 l 18
 2 6 1 7 0 7 c 1
EndSplineSet
EndChar

StartChar: colon
Encoding: 58 58 82
Width: 2
VWidth: 0
Flags: HW
LayerCount: 2
Fore
SplineSet
0 0 m 25
 0 2 l 25
 2 2 l 25
 2 0 l 25
 0 0 l 25
0 8 m 25
 0 10 l 25
 2 10 l 25
 2 8 l 25
 0 8 l 25
EndSplineSet
EndChar

StartChar: semicolon
Encoding: 59 59 83
Width: 2
VWidth: 0
Flags: HW
LayerCount: 2
Fore
SplineSet
0 8 m 25
 0 10 l 25
 2 10 l 25
 2 8 l 25
 0 8 l 25
EndSplineSet
Refer: 71 44 N 1 0 0 1 0 0 2
EndChar

StartChar: period
Encoding: 46 46 84
Width: 2
VWidth: 0
Flags: HW
LayerCount: 2
Fore
SplineSet
0 0 m 25
 0 2 l 25
 2 2 l 25
 2 0 l 25
 0 0 l 25
EndSplineSet
EndChar

StartChar: plus
Encoding: 43 43 86
Width: 10
VWidth: 0
Flags: HW
LayerCount: 2
Fore
SplineSet
0 4 m 25
 0 6 l 25
 4 6 l 25
 4 10 l 25
 6 10 l 25
 6 6 l 25
 10 6 l 25
 10 4 l 25
 6 4 l 25
 6 0 l 25
 4 0 l 25
 4 4 l 25
 0 4 l 25
EndSplineSet
EndChar

StartChar: question
Encoding: 63 63 87
Width: 8
VWidth: 0
Flags: HW
LayerCount: 2
Fore
SplineSet
0 10 m 25
 0 12 l 18
 0 13 1 14 2 14 c 10
 6 14 l 18
 7 14 8 13 8 12 c 10
 8 8 l 18
 8 7 7 6 6 6 c 10
 5 6 l 25
 5 4 l 25
 3 4 l 25
 3 6 l 18
 3 7 4 8 5 8 c 2
 6 8 l 9
 6 12 l 25
 2 12 l 25
 2 10 l 25
 0 10 l 25
3 0 m 25
 3 2 l 25
 5 2 l 25
 5 0 l 25
 3 0 l 25
EndSplineSet
EndChar

StartChar: hyphen
Encoding: 45 45 88
Width: 6
VWidth: 0
Flags: HW
LayerCount: 2
Fore
SplineSet
0 4 m 25
 0 6 l 25
 6 6 l 25
 6 4 l 25
 0 4 l 25
EndSplineSet
EndChar

StartChar: figuredash
Encoding: 8210 8210 92
Width: 10
VWidth: 0
Flags: HW
LayerCount: 2
Fore
SplineSet
0 4 m 25
 0 6 l 25
 10 6 l 25
 10 4 l 25
 0 4 l 25
EndSplineSet
EndChar

StartChar: endash
Encoding: 8211 8211 93
Width: 10
VWidth: 0
Flags: HW
LayerCount: 2
Fore
SplineSet
0 4 m 25
 0 6 l 25
 10 6 l 25
 10 4 l 25
 0 4 l 25
EndSplineSet
EndChar

StartChar: less
Encoding: 60 60 94
Width: 7
VWidth: 0
Flags: HW
LayerCount: 2
Fore
SplineSet
0 5 m 25
 5 10 l 25
 7 10 l 25
 2 5 l 25
 7 0 l 25
 5 0 l 25
 0 5 l 25
EndSplineSet
EndChar

StartChar: at
Encoding: 64 64 98
Width: 12
VWidth: 0
Flags: HW
LayerCount: 2
Fore
SplineSet
0 2 m 10
 0 10 l 18
 0 11 1 12 2 12 c 10
 10 12 l 18
 11 12 12 11 12 10 c 2
 12 5 l 2
 12 4 11 3 10 3 c 10
 5 3 l 18
 4 3 3 4 3 5 c 2
 3 7 l 2
 3 8 4 9 5 9 c 2
 9 9 l 1
 9 5 l 1
 10 5 l 1
 10 10 l 9
 2 10 l 25
 2 2 l 25
 10 2 l 17
 10 0 l 9
 2 0 l 18
 1 0 0 1 0 2 c 10
5 5 m 25
 7 5 l 25
 7 7 l 25
 5 7 l 25
 5 5 l 25
EndSplineSet
EndChar

StartChar: gravecomb
Encoding: 768 768 103
Width: 0
VWidth: 0
Flags: H
LayerCount: 2
Fore
SplineSet
1 14 m 25
 3 14 l 25
 5 12 l 25
 3 12 l 25
 1 14 l 25
EndSplineSet
EndChar

StartChar: acutecomb
Encoding: 769 769 105
Width: 0
VWidth: 0
Flags: H
LayerCount: 2
Fore
SplineSet
3 12 m 25
 5 14 l 25
 7 14 l 25
 5 12 l 25
 3 12 l 25
EndSplineSet
EndChar

StartChar: uni0302
Encoding: 770 770 113
Width: 0
VWidth: 0
Flags: HW
LayerCount: 2
Fore
SplineSet
1 12 m 1
 3 14 l 9
 5 14 l 17
 7 12 l 1
 5 12 l 1
 4 13 l 1
 3 12 l 1
 1 12 l 1
EndSplineSet
EndChar

StartChar: asterisk
Encoding: 42 42 118
Width: 8
VWidth: 0
Flags: HW
LayerCount: 2
Fore
SplineSet
0 4 m 25
 0 6 l 25
 2 6 l 25
 1 8 l 25
 3 9 l 25
 4 7 l 25
 5 9 l 25
 7 8 l 25
 6 6 l 25
 8 6 l 25
 8 4 l 25
 6 4 l 25
 7 2 l 25
 5 1 l 25
 4 3 l 25
 3 1 l 25
 1 2 l 25
 2 4 l 25
 0 4 l 25
EndSplineSet
EndChar

StartChar: slash
Encoding: 47 47 119
Width: 8
VWidth: 0
Flags: HW
LayerCount: 2
Fore
SplineSet
0 -2 m 25
 6 16 l 25
 8 16 l 25
 2 -2 l 25
 0 -2 l 25
EndSplineSet
EndChar

StartChar: tildecomb
Encoding: 771 771 121
Width: 0
VWidth: 0
Flags: H
LayerCount: 2
Fore
SplineSet
1 12 m 1
 1 13 2 14 3 14 c 0
 4 14 4 14 5 13 c 1
 6 14 6 14 7 14 c 1
 7 13 6 12 5 12 c 0
 4 12 4 12 3 13 c 1
 2 12 2 12 1 12 c 1
EndSplineSet
EndChar

StartChar: multiply
Encoding: 215 215 145
Width: 10
VWidth: 0
Flags: HW
LayerCount: 2
Fore
SplineSet
0 1 m 25
 4 5 l 25
 0 9 l 25
 1 10 l 25
 5 6 l 25
 9 10 l 25
 10 9 l 25
 6 5 l 25
 10 1 l 25
 9 0 l 25
 5 4 l 25
 1 0 l 25
 0 1 l 25
EndSplineSet
EndChar

StartChar: uni0327
Encoding: 807 807 150
Width: 0
VWidth: 0
Flags: H
LayerCount: 2
Fore
SplineSet
0 -2 m 25
 3 -2 l 25
 3 0 l 25
 5 0 l 17
 5 -2 l 2
 5 -3 4 -4 3 -4 c 10
 0 -4 l 25
 0 -2 l 25
EndSplineSet
EndChar

StartChar: dotlessi
Encoding: 305 305 154
Width: 2
VWidth: 0
Flags: HW
LayerCount: 2
Fore
SplineSet
0 0 m 25
 0 10 l 25
 2 10 l 25
 2 0 l 25
 0 0 l 25
EndSplineSet
EndChar

StartChar: uni0307
Encoding: 775 775 155
Width: 0
VWidth: 0
Flags: HW
LayerCount: 2
Fore
SplineSet
3 12 m 25
 3 14 l 25
 5 14 l 25
 5 12 l 25
 3 12 l 25
EndSplineSet
EndChar

StartChar: uni0237
Encoding: 567 567 192
Width: 2
VWidth: 0
Flags: HW
LayerCount: 2
Fore
SplineSet
-4 -2 m 25
 0 -2 l 25
 0 10 l 25
 2 10 l 25
 2 -2 l 18
 2 -3 1 -4 0 -4 c 10
 -4 -4 l 25
 -4 -2 l 25
EndSplineSet
EndChar

StartChar: divide
Encoding: 247 247 194
Width: 10
VWidth: 0
Flags: HW
LayerCount: 2
Fore
SplineSet
0 4 m 25
 0 6 l 25
 10 6 l 25
 10 4 l 25
 0 4 l 25
4 0 m 25
 4 2 l 25
 6 2 l 25
 6 0 l 25
 4 0 l 25
4 8 m 25
 4 10 l 25
 6 10 l 25
 6 8 l 25
 4 8 l 25
EndSplineSet
EndChar

StartChar: emdash
Encoding: 8212 8212 195
Width: 14
VWidth: 0
Flags: HW
LayerCount: 2
Fore
SplineSet
0 4 m 25
 0 6 l 25
 14 6 l 25
 14 4 l 25
 0 4 l 25
EndSplineSet
EndChar

StartChar: afii00208
Encoding: 8213 8213 196
Width: 14
VWidth: 0
Flags: HW
LayerCount: 2
Fore
SplineSet
0 4 m 25
 0 6 l 25
 14 6 l 25
 14 4 l 25
 0 4 l 25
EndSplineSet
EndChar

StartChar: uni0304
Encoding: 772 772 199
Width: 0
VWidth: 0
Flags: HW
LayerCount: 2
Fore
SplineSet
1 12 m 25
 1 13 l 25
 7 13 l 25
 7 12 l 25
 1 12 l 25
EndSplineSet
EndChar

StartChar: percent
Encoding: 37 37 238
Width: 12
VWidth: 0
Flags: HW
LayerCount: 2
Fore
SplineSet
0 0 m 25
 2 0 l 25
 12 14 l 25
 10 14 l 25
 0 0 l 25
EndSplineSet
Refer: 239 176 N 1 0 0 1 6 -8 2
Refer: 239 176 N 1 0 0 1 0 0 2
EndChar

StartChar: degree
Encoding: 176 176 239
Width: 6
VWidth: 0
Flags: HW
LayerCount: 2
Fore
SplineSet
4 10 m 25
 2 10 l 25
 2 12 l 25
 4 12 l 25
 4 10 l 25
4 8 m 2
 5 8 6 9 6 10 c 2
 6 12 l 2
 6 13 5 14 4 14 c 2
 2 14 l 2
 1 14 0 13 0 12 c 2
 0 10 l 2
 0 9 1 8 2 8 c 2
 4 8 l 2
EndSplineSet
EndChar

StartChar: trademark
Encoding: 8482 8482 240
Width: 18
VWidth: 0
Flags: HW
LayerCount: 2
Fore
SplineSet
8 8 m 9
 8 14 l 17
 16 14 l 2
 17 14 18 13 18 12 c 10
 18 8 l 25
 16 8 l 25
 16 12 l 25
 14 12 l 25
 14 8 l 25
 12 8 l 25
 12 12 l 25
 10 12 l 17
 10 8 l 1
 8 8 l 9
0 14 m 25
 6 14 l 25
 6 12 l 25
 4 12 l 25
 4 8 l 25
 2 8 l 25
 2 12 l 25
 0 12 l 25
 0 14 l 25
EndSplineSet
EndChar

StartChar: copyright
Encoding: 169 169 241
Width: 10
VWidth: 0
Flags: HW
LayerCount: 2
Fore
SplineSet
4 12 m 25
 8 12 l 17
 8 13 7 14 6 14 c 2
 4 14 l 2
 3 14 2 13 2 12 c 10
 2 10 l 18
 2 9 3 8 4 8 c 2
 6 8 l 2
 7 8 8 9 8 10 c 9
 4 10 l 25
 4 12 l 25
3 15 m 10
 7 15 l 18
 8 15 9 14 9 13 c 2
 9 9 l 2
 9 8 8 7 7 7 c 10
 3 7 l 18
 2 7 1 8 1 9 c 2
 1 13 l 2
 1 14 2 15 3 15 c 10
0 13 m 10
 0 9 l 18
 0 7 2 6 3 6 c 2
 7 6 l 2
 8 6 10 7 10 9 c 10
 10 13 l 18
 10 15 8 16 7 16 c 2
 3 16 l 2
 2 16 0 15 0 13 c 10
EndSplineSet
EndChar

StartChar: registered
Encoding: 174 174 242
Width: 10
VWidth: 0
Flags: HW
LayerCount: 2
Fore
SplineSet
0 13 m 10
 0 9 l 18
 0 7 2 6 3 6 c 2
 7 6 l 2
 8 6 10 7 10 9 c 10
 10 13 l 18
 10 15 8 16 7 16 c 2
 3 16 l 2
 2 16 0 15 0 13 c 10
3 15 m 2
 7 15 l 2
 8 15 9 14 9 13 c 2
 9 9 l 2
 9 8 8 7 7 7 c 2
 3 7 l 2
 2 7 1 8 1 9 c 2
 1 13 l 2
 1 14 2 15 3 15 c 2
2 8 m 1
 4 8 l 1
 4 10 l 1
 5 10 6 9 6 8 c 9
 8 8 l 17
 8 9 7 10 6 10 c 1
 7 10 8 11 8 12 c 0
 8 13 7 14 6 14 c 2
 2 14 l 1
 2 8 l 1
4 13 m 17
 5 13 6 13 6 12 c 0
 6 11 5 11 4 11 c 9
 4 13 l 17
EndSplineSet
EndChar

StartChar: ampersand
Encoding: 38 38 243
Width: 10
VWidth: 0
Flags: HW
LayerCount: 2
Fore
SplineSet
10 0 m 25
 10 2 l 25
 8 2 l 25
 8 6 l 25
 10 6 l 25
 10 8 l 25
 8 8 l 25
 8 10 l 25
 6 10 l 25
 6 8 l 25
 4 8 l 18
 3 8 2 8 2 9 c 2
 2 11 l 2
 2 12 3 12 4 12 c 10
 6 12 l 25
 6 14 l 25
 3 14 l 18
 1 14 0 13 0 11 c 10
 0 9 l 18
 0 8 1 7 2 7 c 1
 1 7 0 6 0 5 c 10
 0 3 l 18
 0 1 1 0 3 0 c 10
 10 0 l 25
6 2 m 25
 4 2 l 18
 3 2 2 2 2 3 c 2
 2 5 l 2
 2 6 3 6 4 6 c 10
 6 6 l 25
 6 2 l 25
EndSplineSet
EndChar

StartChar: uni2117
Encoding: 8471 8471 244
Width: 10
VWidth: 0
Flags: HW
LayerCount: 2
Fore
SplineSet
0 13 m 10
 0 9 l 18
 0 7 2 6 3 6 c 2
 7 6 l 2
 8 6 10 7 10 9 c 10
 10 13 l 18
 10 15 8 16 7 16 c 2
 3 16 l 2
 2 16 0 15 0 13 c 10
3 15 m 2
 7 15 l 2
 8 15 9 14 9 13 c 2
 9 9 l 2
 9 8 8 7 7 7 c 2
 3 7 l 2
 2 7 1 8 1 9 c 2
 1 13 l 2
 1 14 2 15 3 15 c 2
2 8 m 1
 4 8 l 1
 4 10 l 1
 6 10 l 2
 7 10 8 11 8 12 c 0
 8 13 7 14 6 14 c 2
 2 14 l 1
 2 8 l 1
4 13 m 17
 5 13 6 13 6 12 c 0
 6 11 5 11 4 11 c 9
 4 13 l 17
EndSplineSet
EndChar

StartChar: uni2120
Encoding: 8480 8480 245
Width: 18
VWidth: 0
Flags: HW
LayerCount: 2
Fore
SplineSet
0 10 m 1
 0 9 l 2
 0 8 1 8 2 8 c 10
 4 8 l 18
 5 8 6 8 6 9 c 2
 6 11 l 2
 6 12 5 12 4 12 c 10
 2 12 l 25
 2 13 l 25
 6 13 l 17
 6 14 5 14 4 14 c 10
 2 14 l 18
 1 14 0 14 0 13 c 2
 0 12 l 2
 0 11 1 11 2 11 c 10
 4 11 l 25
 4 10 l 17
 0 10 l 1
8 8 m 9
 8 14 l 17
 16 14 l 2
 17 14 18 13 18 12 c 10
 18 8 l 25
 16 8 l 25
 16 12 l 25
 14 12 l 25
 14 8 l 25
 12 8 l 25
 12 12 l 25
 10 12 l 17
 10 8 l 1
 8 8 l 9
EndSplineSet
EndChar

StartChar: germandbls
Encoding: 223 223 246
Width: 8
VWidth: 0
Flags: HW
LayerCount: 2
Fore
SplineSet
0 0 m 9
 2 0 l 25
 2 11 l 18
 2 12 3 12 4 12 c 0
 5 12 6 12 6 11 c 0
 6 10 5 10 4 10 c 9
 4 8 l 17
 5 8 6 8 6 7 c 10
 6 3 l 18
 6 2 5 2 4 2 c 9
 4 0 l 25
 5 0 l 18
 7 0 8 1 8 3 c 2
 8 7 l 2
 8 8 7 9 6 9 c 1
 7 9 8 10 8 11 c 0
 8 13 7 14 5 14 c 10
 3 14 l 18
 1 14 0 13 0 11 c 2
 0 0 l 9
EndSplineSet
EndChar

StartChar: numbersign
Encoding: 35 35 247
Width: 10
VWidth: 0
Flags: HW
LayerCount: 2
Fore
SplineSet
4 6 m 25
 4 8 l 25
 6 8 l 25
 6 6 l 25
 4 6 l 25
2 0 m 25
 4 0 l 25
 4 4 l 25
 6 4 l 25
 6 0 l 25
 8 0 l 25
 8 4 l 25
 10 4 l 25
 10 6 l 25
 8 6 l 25
 8 8 l 25
 10 8 l 25
 10 10 l 25
 8 10 l 25
 8 14 l 25
 6 14 l 25
 6 10 l 25
 4 10 l 25
 4 14 l 25
 2 14 l 25
 2 10 l 25
 0 10 l 25
 0 8 l 25
 2 8 l 25
 2 6 l 25
 0 6 l 25
 0 4 l 25
 2 4 l 25
 2 0 l 25
EndSplineSet
EndChar

StartChar: underscore
Encoding: 95 95 248
Width: 8
VWidth: 0
Flags: HW
LayerCount: 2
Fore
SplineSet
0 -4 m 25
 8 -4 l 25
 8 -2 l 25
 0 -2 l 25
 0 -4 l 25
EndSplineSet
EndChar

StartChar: ordfeminine
Encoding: 170 170 249
Width: 6
VWidth: 0
Flags: HW
LayerCount: 2
Fore
SplineSet
2 10 m 25
 2 12 l 25
 4 12 l 25
 4 10 l 25
 2 10 l 25
2 8 m 10
 6 8 l 25
 6 14 l 25
 2 14 l 18
 1 14 0 13 0 12 c 10
 0 10 l 18
 0 9 1 8 2 8 c 10
EndSplineSet
EndChar

StartChar: brokenbar
Encoding: 166 166 252
Width: 2
VWidth: 0
Flags: HW
LayerCount: 2
Fore
SplineSet
0 8 m 25
 2 8 l 25
 2 16 l 25
 0 16 l 25
 0 8 l 25
0 -2 m 25
 2 -2 l 25
 2 6 l 25
 0 6 l 25
 0 -2 l 25
EndSplineSet
EndChar

StartChar: plusminus
Encoding: 177 177 255
Width: 10
VWidth: 0
Flags: HW
LayerCount: 2
Fore
SplineSet
0 6 m 25
 4 6 l 25
 4 4 l 25
 6 4 l 25
 6 6 l 25
 10 6 l 25
 10 8 l 25
 6 8 l 25
 6 10 l 25
 4 10 l 25
 4 8 l 25
 0 8 l 25
 0 6 l 25
EndSplineSet
Refer: 253 8722 N 1 0 0 1 0 -4 2
EndChar

StartChar: longs
Encoding: 383 383 297
Width: 6
VWidth: 0
Flags: HW
LayerCount: 2
Fore
SplineSet
0 0 m 25
 2 0 l 25
 2 12 l 17
 6 12 l 25
 6 14 l 25
 2 14 l 18
 1 14 0 13 0 12 c 10
 0 0 l 25
EndSplineSet
EndChar

StartChar: uni00B9
Encoding: 185 185 300
Width: 4
VWidth: 0
Flags: HW
LayerCount: 2
Fore
SplineSet
0 14 m 25
 0 12 l 25
 2 12 l 25
 2 8 l 25
 4 8 l 25
 4 12 l 18
 4 13 3 14 2 14 c 10
 0 14 l 25
EndSplineSet
EndChar

StartChar: uni00B2
Encoding: 178 178 301
Width: 6
VWidth: 0
Flags: HW
LayerCount: 2
Fore
SplineSet
0 13 m 17
 0 14 1 14 2 14 c 10
 4 14 l 18
 5 14 6 14 6 13 c 10
 6 12 l 18
 6 11 5 11 4 11 c 10
 2 11 l 25
 2 10 l 25
 6 10 l 25
 6 8 l 25
 0 8 l 25
 0 11 l 18
 0 12 1 12 2 12 c 10
 4 12 l 25
 4 13 l 25
 0 13 l 17
EndSplineSet
EndChar

StartChar: uni00B3
Encoding: 179 179 302
Width: 6
VWidth: 0
Flags: HW
LayerCount: 2
Fore
SplineSet
0 13 m 17
 0 14 1 14 2 14 c 10
 4 14 l 18
 5 14 6 14 6 13 c 2
 6 9 l 2
 6 8 5 8 4 8 c 10
 2 8 l 18
 1 8 0 8 0 9 c 10
 0 10 l 25
 4 10 l 25
 4 11 l 25
 2 11 l 17
 2 12 l 1
 4 12 l 9
 4 13 l 25
 0 13 l 17
EndSplineSet
EndChar

StartChar: uni2074
Encoding: 8308 8308 304
Width: 6
VWidth: 0
Flags: HW
LayerCount: 2
Fore
SplineSet
0 14 m 25
 0 12 l 18
 0 11 1 10 2 10 c 10
 4 10 l 25
 4 8 l 25
 6 8 l 25
 6 14 l 25
 4 14 l 25
 4 12 l 25
 2 12 l 25
 2 14 l 25
 0 14 l 25
EndSplineSet
EndChar

StartChar: fraction
Encoding: 8260 8260 308
Width: 8
VWidth: 0
Flags: HW
LayerCount: 2
Fore
SplineSet
0 5 m 25
 2 5 l 25
 8 9 l 25
 6 9 l 25
 0 5 l 25
EndSplineSet
EndChar

StartChar: Thorn
Encoding: 222 222 322
Width: 8
VWidth: 0
Flags: HW
LayerCount: 2
Fore
SplineSet
2 4 m 25
 2 10 l 25
 6 10 l 25
 6 4 l 25
 2 4 l 25
0 0 m 25
 2 0 l 25
 2 2 l 25
 6 2 l 18
 7 2 8 3 8 4 c 10
 8 10 l 18
 8 11 7 12 6 12 c 10
 2 12 l 25
 2 14 l 25
 0 14 l 25
 0 0 l 25
EndSplineSet
EndChar

StartChar: thorn
Encoding: 254 254 323
Width: 8
VWidth: 0
Flags: HW
LayerCount: 2
Fore
SplineSet
2 2 m 25
 2 8 l 25
 6 8 l 25
 6 2 l 25
 2 2 l 25
0 -4 m 25
 2 -4 l 25
 2 0 l 25
 6 0 l 18
 7 0 8 1 8 2 c 10
 8 8 l 18
 8 9 7 10 6 10 c 10
 2 10 l 25
 2 14 l 25
 0 14 l 25
 0 -4 l 25
EndSplineSet
EndChar

StartChar: Eth
Encoding: 208 208 329
Width: 8
VWidth: 0
Flags: HW
LayerCount: 2
Fore
SplineSet
0 0 m 17
 0 6 l 1
 -2 6 l 1
 -2 8 l 1
 0 8 l 1
 0 14 l 9
 5 14 l 18
 7 14 8 13 8 11 c 10
 8 3 l 18
 8 1 7 0 5 0 c 10
 0 0 l 17
2 2 m 1
 4 2 l 2
 5 2 6 2 6 3 c 10
 6 11 l 18
 6 12 5 12 4 12 c 2
 2 12 l 1
 2 8 l 1
 4 8 l 1
 4 6 l 1
 2 6 l 1
 2 2 l 1
EndSplineSet
EndChar

StartChar: logicalnot
Encoding: 172 172 331
Width: 10
VWidth: 0
Flags: HW
LayerCount: 2
Fore
SplineSet
0 4 m 25
 8 4 l 25
 8 0 l 25
 10 0 l 25
 10 6 l 25
 0 6 l 25
 0 4 l 25
EndSplineSet
EndChar

StartChar: uni00B5
Encoding: 181 181 332
Width: 8
VWidth: 0
Flags: HW
LayerCount: 2
Fore
SplineSet
0 -4 m 25
 2 -4 l 25
 2 0 l 25
 6 0 l 18
 7 0 8 1 8 2 c 10
 8 10 l 25
 6 10 l 25
 6 2 l 25
 2 2 l 25
 2 10 l 25
 0 10 l 25
 0 -4 l 25
EndSplineSet
EndChar

StartChar: paragraph
Encoding: 182 182 333
Width: 8
VWidth: 0
Flags: HW
LayerCount: 2
Fore
SplineSet
4 0 m 25
 6 0 l 17
 6 12 l 1
 7 12 l 1
 7 0 l 1
 8 0 l 1
 8 14 l 1
 2 14 l 2
 1 14 0 13 0 12 c 10
 0 8 l 18
 0 7 1 6 2 6 c 10
 4 6 l 25
 4 0 l 25
EndSplineSet
EndChar

StartChar: section
Encoding: 167 167 334
Width: 8
VWidth: 0
Flags: HW
LayerCount: 2
Fore
SplineSet
2 6 m 25
 2 8 l 25
 6 8 l 25
 6 6 l 25
 2 6 l 25
0 0 m 25
 6 0 l 18
 7 0 8 1 8 2 c 10
 8 3 l 18
 8 4 8 5 7 5 c 1
 8 5 8 6 8 7 c 10
 8 8 l 18
 8 9 7 10 6 10 c 10
 2 10 l 25
 2 12 l 25
 8 12 l 25
 8 14 l 25
 2 14 l 18
 1 14 0 13 0 12 c 10
 0 11 l 18
 0 10 0 9 1 9 c 1
 0 9 0 8 0 7 c 10
 0 6 l 18
 0 5 1 4 2 4 c 10
 6 4 l 25
 6 2 l 25
 0 2 l 25
 0 0 l 25
EndSplineSet
EndChar

StartChar: currency
Encoding: 164 164 335
Width: 8
VWidth: 0
Flags: HW
LayerCount: 2
Fore
SplineSet
3 4 m 25
 3 6 l 25
 5 6 l 25
 5 4 l 25
 3 4 l 25
0 3 m 25
 2 1 l 25
 3 2 l 25
 5 2 l 25
 6 1 l 25
 8 3 l 25
 7 4 l 25
 7 6 l 25
 8 7 l 25
 6 9 l 25
 5 8 l 25
 3 8 l 25
 2 9 l 25
 0 7 l 25
 1 6 l 25
 1 4 l 25
 0 3 l 25
EndSplineSet
EndChar

StartChar: kgreenlandic
Encoding: 312 312 336
Width: 8
VWidth: 0
Flags: HW
LayerCount: 2
Fore
SplineSet
0 0 m 25
 0 10 l 25
 2 10 l 25
 2 6 l 17
 4 6 l 2
 5 6 6 6 6 7 c 2
 6 10 l 9
 8 10 l 17
 8 7 l 2
 8 6 7 5 6 5 c 1
 7 5 8 4 8 3 c 2
 8 0 l 9
 6 0 l 17
 6 3 l 2
 6 4 5 4 4 4 c 2
 2 4 l 9
 2 0 l 25
 0 0 l 25
EndSplineSet
EndChar

StartChar: Tbar
Encoding: 358 358 347
Width: 8
VWidth: 0
Flags: HW
LayerCount: 2
Fore
SplineSet
0 12 m 25
 0 14 l 25
 8 14 l 25
 8 12 l 25
 5 12 l 17
 5 8 l 1
 7 8 l 1
 7 6 l 1
 5 6 l 1
 5 0 l 9
 3 0 l 17
 3 6 l 1
 1 6 l 1
 1 8 l 1
 3 8 l 1
 3 12 l 9
 0 12 l 25
EndSplineSet
EndChar

StartChar: tbar
Encoding: 359 359 348
Width: 8
VWidth: 0
Flags: HW
LayerCount: 2
Fore
SplineSet
2 2 m 2
 2 4 l 1
 0 4 l 1
 0 6 l 1
 2 6 l 1
 2 14 l 9
 4 14 l 25
 4 10 l 25
 8 10 l 25
 8 8 l 25
 4 8 l 17
 4 6 l 1
 6 6 l 1
 6 4 l 1
 4 4 l 1
 4 2 l 9
 8 2 l 25
 8 0 l 25
 4 0 l 18
 3 0 2 1 2 2 c 2
EndSplineSet
EndChar

StartChar: Oslash
Encoding: 216 216 349
Width: 8
VWidth: 0
Flags: HW
LayerCount: 2
Fore
SplineSet
2 2 m 25
 6 2 l 25
 6 8 l 25
 2 4 l 25
 2 2 l 25
0 2 m 2
 0 12 l 2
 0 13 1 14 2 14 c 10
 6 14 l 18
 7 14 8 13 8 12 c 2
 8 2 l 2
 8 1 7 0 6 0 c 10
 2 0 l 18
 1 0 0 1 0 2 c 2
6 12 m 25
 2 12 l 25
 2 6 l 25
 6 10 l 25
 6 12 l 25
EndSplineSet
EndChar

StartChar: oslash
Encoding: 248 248 350
Width: 8
VWidth: 0
Flags: HW
LayerCount: 2
Fore
SplineSet
6 2 m 25
 6 6 l 25
 2 2 l 25
 6 2 l 25
0 2 m 10
 0 8 l 18
 0 9 1 10 2 10 c 10
 6 10 l 18
 7 10 8 9 8 8 c 10
 8 2 l 18
 8 1 7 0 6 0 c 10
 2 0 l 18
 1 0 0 1 0 2 c 10
2 8 m 25
 2 4 l 25
 6 8 l 25
 2 8 l 25
EndSplineSet
EndChar

StartChar: Lslash
Encoding: 321 321 351
Width: 6
VWidth: 0
Flags: HW
LayerCount: 2
Fore
SplineSet
0 0 m 17
 0 5 l 1
 -2 3 l 1
 -2 5 l 1
 0 7 l 1
 0 14 l 9
 2 14 l 17
 2 9 l 1
 4 11 l 1
 4 9 l 1
 2 7 l 1
 2 2 l 9
 6 2 l 25
 6 0 l 25
 0 0 l 17
EndSplineSet
EndChar

StartChar: lslash
Encoding: 322 322 352
Width: 2
VWidth: 0
Flags: HW
LayerCount: 2
Fore
SplineSet
0 0 m 25
 2 0 l 25
 2 7 l 25
 4 9 l 25
 4 11 l 25
 2 9 l 25
 2 14 l 25
 0 14 l 25
 0 7 l 25
 -2 5 l 25
 -2 3 l 25
 0 5 l 25
 0 0 l 25
EndSplineSet
EndChar

StartChar: bullet
Encoding: 8226 8226 353
Width: 4
VWidth: 0
Flags: HW
LayerCount: 2
Fore
SplineSet
0 3 m 25
 0 7 l 25
 4 7 l 25
 4 3 l 25
 0 3 l 25
EndSplineSet
EndChar
